<!DOCTYPE svg PUBLIC "-//W3C//DTD SVG 1.1//EN" "http://www.w3.org/Graphics/SVG/1.1/DTD/svg11.dtd">
<!-- Uploaded to: SVG Repo, www.svgrepo.com, Transformed by: SVG Repo Mixer Tools -->
<svg height="134px" width="134px" version="1.1" id="Layer_1" xmlns="http://www.w3.org/2000/svg" xmlns:xlink="http://www.w3.org/1999/xlink" viewBox="0 0 511.997 511.997" xml:space="preserve" fill="#000000" transform="matrix(-1, 0, 0, 1, 0, 0)rotate(0)" stroke="#000000" stroke-width="0.00511997">
<g id="SVGRepo_bgCarrier" stroke-width="0"/>
<g id="SVGRepo_tracerCarrier" stroke-linecap="round" stroke-linejoin="round"/>
<g id="SVGRepo_iconCarrier"> <g> <path style="fill:#F4B2B0;" d="M255.999,472.681c23.788,35.682,71.365,23.788,71.365,23.788c0-71.365-71.365-95.153-71.365-95.153 s-71.365,23.788-71.365,95.153C184.634,496.47,232.211,508.364,255.999,472.681L255.999,472.681z"/> <circle style="fill:#F4B2B0;" cx="330.954" cy="36.886" r="23.261"/> <circle style="fill:#F4B2B0;" cx="181.045" cy="36.886" r="23.261"/> <path style="fill:#F4B2B0;" d="M446.862,60.15h-11.154v63.731h-47.799v56.653c0,20.239,16.407,36.645,36.645,36.645h22.306 c20.239,0,36.645-16.407,36.645-36.645V96.795C483.507,76.557,467.1,60.15,446.862,60.15z"/> <path style="fill:#F4B2B0;" d="M65.138,60.15h11.154v63.731h47.799v56.653c0,20.239-16.407,36.645-36.645,36.645H65.138 c-20.239,0-36.645-16.407-36.645-36.645V96.795C28.492,76.557,44.898,60.15,65.138,60.15z"/> </g> <g> <path style="fill:#B3404A;" d="M181.438,279.149c0.754,0,1.515-0.063,2.282-0.193c7.421-1.251,12.424-8.281,11.171-15.702 c-0.031-0.187-0.057-0.373-0.089-0.56h69.373c7.526,0,13.627-6.102,13.627-13.627s-6.101-13.627-13.627-13.627h-72.371 c-0.253-4.584-0.392-9.171-0.392-13.748v-63.016c0-25.026,20.36-45.387,45.385-45.387h38.406c25.026,0,45.385,20.36,45.385,45.387 c0,7.525,6.101,13.627,13.627,13.627c7.526,0,13.627-6.102,13.627-13.627c0-21.763-9.633-41.307-24.844-54.631l16.696-31.323 c16.134-3.937,28.149-18.505,28.149-35.834C367.843,16.547,351.294,0,330.954,0s-36.889,16.548-36.889,36.888 c0,13.114,6.884,24.643,17.223,31.186l-11.806,22.148c-7.597-2.702-15.765-4.186-24.277-4.186h-38.406 c-8.511,0-16.681,1.484-24.278,4.186l-11.806-22.148c10.339-6.544,17.223-18.073,17.223-31.186C217.937,16.547,201.389,0,181.048,0 s-36.889,16.548-36.889,36.888c0,17.329,12.015,31.898,28.149,35.834l16.696,31.321c-15.212,13.324-24.844,32.868-24.844,54.631 v63.016c0,4.577,0.129,9.163,0.357,13.748H89.917v-4.693c26.575-1.295,47.799-23.32,47.799-50.211v-56.653V74.878 c0-7.525-6.101-13.627-13.627-13.627c-7.526,0-13.627,6.102-13.627,13.627v35.377H89.917V60.149 c0-7.525-6.101-13.627-13.627-13.627H65.137c-27.721,0-50.273,22.552-50.273,50.273v83.739c0,26.891,21.224,48.915,47.799,50.211 v18.32c0,7.525,6.101,13.627,13.627,13.627h90.924c0.253,1.701,0.518,3.4,0.804,5.092 C169.141,274.438,174.908,279.149,181.438,279.149z M330.951,27.252c5.313,0,9.636,4.322,9.636,9.634 c0,5.313-4.322,9.636-9.636,9.636c-5.313,0-9.635-4.322-9.635-9.636C321.315,31.575,325.638,27.252,330.951,27.252z M181.048,27.252c5.313,0,9.636,4.322,9.636,9.634c0,5.313-4.322,9.636-9.636,9.636s-9.636-4.322-9.636-9.636 C171.412,31.575,175.735,27.252,181.048,27.252z M42.118,180.535V96.795c0-11.857,9.011-21.649,20.545-22.888v49.974 c0,7.525,6.101,13.627,13.627,13.627h34.172v43.027c0,12.692-10.326,23.02-23.018,23.02H65.138 C52.445,203.554,42.118,193.228,42.118,180.535z"/> <path style="fill:#B3404A;" d="M446.862,46.523h-11.154c-7.526,0-13.627,6.102-13.627,13.627v50.106h-20.545V74.878 c0-7.525-6.101-13.627-13.627-13.627s-13.627,6.102-13.627,13.627v49.003v56.653c0,26.891,21.224,48.915,47.799,50.211v4.693 h-74.599c0.229-4.585,0.357-9.171,0.357-13.748c0-7.525-6.101-13.627-13.627-13.627c-7.526,0-13.627,6.102-13.627,13.627 c0,13.661-1.134,27.416-3.369,40.897l-17.873,65.244h-35.169c-7.526,0-13.627,6.102-13.627,13.627s6.101,13.627,13.627,13.627 h27.703l-11.674,42.612c-11.06-6.312-19.365-9.133-19.897-9.31c-2.798-0.932-5.82-0.932-8.618,0 c-0.536,0.179-8.949,3.035-20.119,9.437l-21.428-73.269c-2.114-7.222-9.682-11.373-16.904-9.253 c-7.224,2.112-11.366,9.68-9.254,16.904l24.122,82.478c-24.287,21.746-37.1,49.923-37.1,81.784c0,6.253,4.257,11.704,10.324,13.219 c0.946,0.237,9.586,2.31,21.573,2.31c0.001,0,0.001,0,0.003,0c21.216,0,39.531-6.525,53.093-18.658 c13.563,12.135,31.879,18.658,53.096,18.658c11.989,0,20.628-2.073,21.575-2.31c6.065-1.517,10.321-6.966,10.321-13.219 c0-31.888-12.836-60.09-37.166-81.843l39.861-145.507c0.12-0.44,0.219-0.886,0.294-1.334c0.286-1.694,0.549-3.392,0.804-5.092 h90.923c7.526,0,13.627-6.102,13.627-13.627v-18.32c26.576-1.295,47.799-23.32,47.799-50.211V96.795 C497.134,69.074,474.581,46.523,446.862,46.523z M312.931,484.65c-1.213,0.06-2.496,0.095-3.835,0.095 c-19.027,0-33.076-6.602-41.758-19.623c-2.526-3.791-6.782-6.068-11.338-6.068c-4.555,0-8.811,2.277-11.337,6.068 c-8.682,13.022-22.731,19.624-41.758,19.623c-1.345,0-2.633-0.035-3.848-0.097c5.964-43.347,43.846-63.114,56.91-68.701 C268.875,421.547,306.906,441.537,312.931,484.65z M469.88,180.535c0,12.692-10.326,23.02-23.02,23.02h-22.304 c-12.692,0-23.018-10.326-23.018-23.02v-43.027h34.172c7.526,0,13.627-6.102,13.627-13.627V73.908 c11.534,1.239,20.545,11.031,20.545,22.888v83.739H469.88z"/> </g> </g>
</svg>